<svg width="400" height="80" viewBox="0 0 400 80" fill="none" xmlns="http://www.w3.org/2000/svg">
<rect width="20" height="20" fill="#CED3FF"/>
<rect x="280" width="20" height="20" fill="#CED3FF"/>
<rect x="40" width="20" height="20" fill="#CED3FF"/>
<rect x="320" width="20" height="20" fill="#CED3FF"/>
<rect x="80" width="20" height="20" fill="#CED3FF"/>
<rect x="360" width="20" height="20" fill="#CED3FF"/>
<rect x="120" width="20" height="20" fill="#CED3FF"/>
<rect x="160" width="20" height="20" fill="#CED3FF"/>
<rect x="200" width="20" height="20" fill="#CED3FF"/>
<rect x="240" width="20" height="20" fill="#CED3FF"/>
<rect x="20" y="20" width="20" height="20" fill="#CED3FF"/>
<rect x="300" y="20" width="20" height="20" fill="#CED3FF"/>
<rect x="60" y="20" width="20" height="20" fill="#CED3FF"/>
<rect x="340" y="20" width="20" height="20" fill="#CED3FF"/>
<rect x="100" y="20" width="20" height="20" fill="#CED3FF"/>
<rect x="380" y="20" width="20" height="20" fill="#CED3FF"/>
<rect x="140" y="20" width="20" height="20" fill="#CED3FF"/>
<rect x="180" y="20" width="20" height="20" fill="#CED3FF"/>
<rect x="220" y="20" width="20" height="20" fill="#CED3FF"/>
<rect x="260" y="20" width="20" height="20" fill="#CED3FF"/>
<rect y="40" width="20" height="20" fill="#CED3FF"/>
<rect x="280" y="40" width="20" height="20" fill="#CED3FF"/>
<rect x="40" y="40" width="20" height="20" fill="#CED3FF"/>
<rect x="320" y="40" width="20" height="20" fill="#CED3FF"/>
<rect x="80" y="40" width="20" height="20" fill="#CED3FF"/>
<rect x="360" y="40" width="20" height="20" fill="#CED3FF"/>
<rect x="120" y="40" width="20" height="20" fill="#CED3FF"/>
<rect x="160" y="40" width="20" height="20" fill="#CED3FF"/>
<rect x="200" y="40" width="20" height="20" fill="#CED3FF"/>
<rect x="240" y="40" width="20" height="20" fill="#CED3FF"/>
<rect x="20" y="60" width="20" height="20" fill="#CED3FF"/>
<rect x="300" y="60" width="20" height="20" fill="#CED3FF"/>
<rect x="60" y="60" width="20" height="20" fill="#CED3FF"/>
<rect x="340" y="60" width="20" height="20" fill="#CED3FF"/>
<rect x="100" y="60" width="20" height="20" fill="#CED3FF"/>
<rect x="380" y="60" width="20" height="20" fill="#CED3FF"/>
<rect x="140" y="60" width="20" height="20" fill="#CED3FF"/>
<rect x="180" y="60" width="20" height="20" fill="#CED3FF"/>
<rect x="220" y="60" width="20" height="20" fill="#CED3FF"/>
<rect x="260" y="60" width="20" height="20" fill="#CED3FF"/>
</svg>
