<svg width="40" height="46" viewBox="0 0 40 46" fill="none" xmlns="http://www.w3.org/2000/svg">
<path fill-rule="evenodd" clip-rule="evenodd" d="M15.7143 38.7258C15.7143 39.2721 15.2858 39.5596 14.7715 39.4158C11.3135 38.3028 8.29638 36.1129 6.15566 33.1623C4.01494 30.2117 2.86133 26.6529 2.86133 22.9996C2.86133 19.3463 4.01494 15.7875 6.15566 12.8369C8.29638 9.88621 11.3135 7.69634 14.7715 6.58333C15.2858 6.41083 15.7143 6.72708 15.7143 7.27333V8.59583C15.7143 8.96958 15.4286 9.37208 15.0858 9.48708C9.62861 11.4996 5.71432 16.7896 5.71432 22.9708C5.71432 29.1521 9.62861 34.4421 15.0858 36.4546C15.4286 36.5696 15.7143 37.0008 15.7143 37.3458V38.6971V38.7258Z" fill="black"/>
<path fill-rule="evenodd" clip-rule="evenodd" d="M21.4285 33.7817C21.4285 34.1842 21.1142 34.5004 20.7142 34.5004H19.2857C18.8857 34.5004 18.5714 34.1842 18.5714 33.7817V31.5104C15.4571 31.0792 13.9428 29.3254 13.5142 26.9392C13.4285 26.5367 13.7714 26.1629 14.1714 26.1629H15.7999C16.1428 26.1629 16.4285 26.3929 16.4857 26.7379C16.7999 28.1754 17.5999 29.2392 20.1142 29.2392C21.9714 29.2392 23.2571 28.2042 23.2571 26.6517C23.2571 25.0992 22.4857 24.5242 19.7714 24.0642C15.7714 23.5179 13.8857 22.3104 13.8857 19.1479C13.8857 16.7042 15.7142 14.8354 18.5428 14.4042V12.1904C18.5428 11.7879 18.8571 11.4717 19.2571 11.4717H20.6857C21.0857 11.4717 21.3999 11.7879 21.3999 12.1904V14.4904C23.7142 14.8929 25.1714 16.2154 25.6285 18.4004C25.7142 18.8029 25.3999 19.2054 24.9714 19.2054H23.4571C23.1428 19.2054 22.8571 18.9754 22.7714 18.6879C22.3714 17.3079 21.3714 16.7042 19.6857 16.7042C17.7999 16.7042 16.8285 17.6242 16.8285 18.9179C16.8285 20.2692 17.3714 20.9592 20.2857 21.3904C24.1999 21.9367 26.2285 23.0579 26.2285 26.4217C26.2285 28.9804 24.3428 31.0504 21.3999 31.5104V33.7817H21.4285Z" fill="black"/>
<path fill-rule="evenodd" clip-rule="evenodd" d="M25.229 39.4159C24.7147 39.5884 24.2861 39.2722 24.2861 38.7259V37.4034C24.2861 37.0009 24.5147 36.6272 24.9147 36.5122C30.3718 34.4997 34.2861 29.2097 34.2861 23.0284C34.2861 16.8472 30.3718 11.5572 24.9147 9.54469C24.7377 9.46995 24.5851 9.34686 24.474 9.18936C24.3629 9.03185 24.2978 8.84622 24.2861 8.65344V7.33094C24.2861 6.78469 24.7147 6.46844 25.229 6.64094C32.1433 8.85469 37.1433 15.3809 37.1433 23.0572C37.1433 30.7334 32.1433 37.2309 25.229 39.4734V39.4159Z" fill="black"/>
</svg>
