<svg width="159" height="46" viewBox="0 0 159 46" fill="none" xmlns="http://www.w3.org/2000/svg">
<path fill-rule="evenodd" clip-rule="evenodd" d="M15.7143 38.7258C15.7143 39.2721 15.2858 39.5596 14.7715 39.4158C11.3135 38.3028 8.29638 36.1129 6.15566 33.1623C4.01494 30.2117 2.86133 26.6529 2.86133 22.9996C2.86133 19.3463 4.01494 15.7875 6.15566 12.8369C8.29638 9.88621 11.3135 7.69634 14.7715 6.58333C15.2858 6.41083 15.7143 6.72708 15.7143 7.27333V8.59583C15.7143 8.96958 15.4286 9.37208 15.0858 9.48708C9.62861 11.4996 5.71432 16.7896 5.71432 22.9708C5.71432 29.1521 9.62861 34.4421 15.0858 36.4546C15.4286 36.5696 15.7143 37.0008 15.7143 37.3458V38.6971V38.7258Z" fill="black"/>
<path fill-rule="evenodd" clip-rule="evenodd" d="M21.4285 33.7817C21.4285 34.1842 21.1142 34.5004 20.7142 34.5004H19.2857C18.8857 34.5004 18.5714 34.1842 18.5714 33.7817V31.5104C15.4571 31.0792 13.9428 29.3254 13.5142 26.9392C13.4285 26.5367 13.7714 26.1629 14.1714 26.1629H15.7999C16.1428 26.1629 16.4285 26.3929 16.4857 26.7379C16.7999 28.1754 17.5999 29.2392 20.1142 29.2392C21.9714 29.2392 23.2571 28.2042 23.2571 26.6517C23.2571 25.0992 22.4857 24.5242 19.7714 24.0642C15.7714 23.5179 13.8857 22.3104 13.8857 19.1479C13.8857 16.7042 15.7142 14.8354 18.5428 14.4042V12.1904C18.5428 11.7879 18.8571 11.4717 19.2571 11.4717H20.6857C21.0857 11.4717 21.3999 11.7879 21.3999 12.1904V14.4904C23.7142 14.8929 25.1714 16.2154 25.6285 18.4004C25.7142 18.8029 25.3999 19.2054 24.9714 19.2054H23.4571C23.1428 19.2054 22.8571 18.9754 22.7714 18.6879C22.3714 17.3079 21.3714 16.7042 19.6857 16.7042C17.7999 16.7042 16.8285 17.6242 16.8285 18.9179C16.8285 20.2692 17.3714 20.9592 20.2857 21.3904C24.1999 21.9367 26.2285 23.0579 26.2285 26.4217C26.2285 28.9804 24.3428 31.0504 21.3999 31.5104V33.7817H21.4285Z" fill="black"/>
<path fill-rule="evenodd" clip-rule="evenodd" d="M25.229 39.4159C24.7147 39.5884 24.2861 39.2722 24.2861 38.7259V37.4034C24.2861 37.0009 24.5147 36.6272 24.9147 36.5122C30.3718 34.4997 34.2861 29.2097 34.2861 23.0284C34.2861 16.8472 30.3718 11.5572 24.9147 9.54469C24.7377 9.46995 24.5851 9.34686 24.474 9.18936C24.3629 9.03185 24.2978 8.84622 24.2861 8.65344V7.33094C24.2861 6.78469 24.7147 6.46844 25.229 6.64094C32.1433 8.85469 37.1433 15.3809 37.1433 23.0572C37.1433 30.7334 32.1433 37.2309 25.229 39.4734V39.4159Z" fill="black"/>
<path d="M65.5227 11.2273H69.0455V26.5341C69.0455 28.1629 68.6629 29.6061 67.8977 30.8636C67.1326 32.1136 66.0568 33.0985 64.6705 33.8182C63.2841 34.5303 61.6591 34.8864 59.7955 34.8864C57.9394 34.8864 56.3182 34.5303 54.9318 33.8182C53.5455 33.0985 52.4697 32.1136 51.7045 30.8636C50.9394 29.6061 50.5568 28.1629 50.5568 26.5341V11.2273H54.0682V26.25C54.0682 27.303 54.2992 28.2386 54.7614 29.0568C55.2311 29.875 55.8939 30.5189 56.75 30.9886C57.6061 31.4508 58.6212 31.6818 59.7955 31.6818C60.9773 31.6818 61.9962 31.4508 62.8523 30.9886C63.7159 30.5189 64.375 29.875 64.8295 29.0568C65.2917 28.2386 65.5227 27.303 65.5227 26.25V11.2273ZM86.8438 17.3409C86.7225 16.2652 86.2225 15.4318 85.3438 14.8409C84.465 14.2424 83.3589 13.9432 82.0256 13.9432C81.071 13.9432 80.2453 14.0947 79.5483 14.3977C78.8513 14.6932 78.3097 15.1023 77.9233 15.625C77.5445 16.1402 77.3551 16.7273 77.3551 17.3864C77.3551 17.9394 77.4839 18.4167 77.7415 18.8182C78.0066 19.2197 78.3513 19.5568 78.7756 19.8295C79.2074 20.0947 79.6695 20.3182 80.1619 20.5C80.6544 20.6742 81.1278 20.8182 81.5824 20.9318L83.8551 21.5227C84.5975 21.7045 85.3589 21.9508 86.1392 22.2614C86.9195 22.572 87.643 22.9811 88.3097 23.4886C88.9763 23.9962 89.5142 24.625 89.9233 25.375C90.34 26.125 90.5483 27.0227 90.5483 28.0682C90.5483 29.3864 90.2074 30.5568 89.5256 31.5795C88.8513 32.6023 87.8703 33.4091 86.5824 34C85.3021 34.5909 83.7528 34.8864 81.9347 34.8864C80.1922 34.8864 78.6847 34.6098 77.4119 34.0568C76.1392 33.5038 75.143 32.7197 74.4233 31.7045C73.7036 30.6818 73.3059 29.4697 73.2301 28.0682H76.7528C76.821 28.9091 77.0938 29.6098 77.571 30.1705C78.0559 30.7235 78.6733 31.1364 79.4233 31.4091C80.1809 31.6742 81.0104 31.8068 81.9119 31.8068C82.9044 31.8068 83.7869 31.6515 84.5597 31.3409C85.34 31.0227 85.9536 30.5833 86.4006 30.0227C86.8475 29.4545 87.071 28.7917 87.071 28.0341C87.071 27.3447 86.8741 26.7803 86.4801 26.3409C86.0938 25.9015 85.5672 25.5379 84.9006 25.25C84.2415 24.9621 83.4953 24.7083 82.6619 24.4886L79.9119 23.7386C78.0483 23.2311 76.571 22.4848 75.4801 21.5C74.3968 20.5152 73.8551 19.2121 73.8551 17.5909C73.8551 16.25 74.2188 15.0795 74.946 14.0795C75.6733 13.0795 76.6581 12.303 77.9006 11.75C79.143 11.1894 80.5445 10.9091 82.1051 10.9091C83.6809 10.9091 85.071 11.1856 86.2756 11.7386C87.4877 12.2917 88.4422 13.053 89.1392 14.0227C89.8362 14.9848 90.1998 16.0909 90.2301 17.3409H86.8438ZM102.278 34.5H94.7443V11.2273H102.517C104.797 11.2273 106.756 11.6932 108.392 12.625C110.028 13.5492 111.282 14.8788 112.153 16.6136C113.032 18.3409 113.472 20.4129 113.472 22.8295C113.472 25.2538 113.028 27.3371 112.142 29.0795C111.263 30.822 109.991 32.1629 108.324 33.1023C106.657 34.0341 104.642 34.5 102.278 34.5ZM98.2557 31.4318H102.085C103.858 31.4318 105.331 31.0985 106.506 30.4318C107.68 29.7576 108.559 28.7841 109.142 27.5114C109.725 26.2311 110.017 24.6705 110.017 22.8295C110.017 21.0038 109.725 19.4545 109.142 18.1818C108.566 16.9091 107.706 15.9432 106.562 15.2841C105.419 14.625 103.998 14.2955 102.301 14.2955H98.2557V31.4318ZM137.168 18.7955H133.622C133.486 18.0379 133.232 17.3712 132.861 16.7955C132.49 16.2197 132.035 15.7311 131.497 15.3295C130.959 14.928 130.357 14.625 129.69 14.4205C129.031 14.2159 128.33 14.1136 127.588 14.1136C126.247 14.1136 125.046 14.4508 123.986 15.125C122.933 15.7992 122.099 16.7879 121.486 18.0909C120.88 19.3939 120.577 20.9848 120.577 22.8636C120.577 24.7576 120.88 26.3561 121.486 27.6591C122.099 28.9621 122.937 29.947 123.997 30.6136C125.058 31.2803 126.251 31.6136 127.577 31.6136C128.312 31.6136 129.009 31.5152 129.668 31.3182C130.334 31.1136 130.937 30.8144 131.474 30.4205C132.012 30.0265 132.467 29.5455 132.838 28.9773C133.217 28.4015 133.478 27.7424 133.622 27L137.168 27.0114C136.978 28.1553 136.611 29.2083 136.065 30.1705C135.527 31.125 134.834 31.9508 133.986 32.6477C133.145 33.3371 132.183 33.8712 131.099 34.25C130.016 34.6288 128.834 34.8182 127.554 34.8182C125.539 34.8182 123.743 34.3409 122.168 33.3864C120.592 32.4242 119.349 31.0492 118.44 29.2614C117.539 27.4735 117.088 25.3409 117.088 22.8636C117.088 20.3788 117.543 18.2462 118.452 16.4659C119.361 14.678 120.603 13.3068 122.179 12.3523C123.755 11.3902 125.546 10.9091 127.554 10.9091C128.789 10.9091 129.94 11.0871 131.009 11.4432C132.084 11.7917 133.05 12.3068 133.906 12.9886C134.762 13.6629 135.471 14.4886 136.031 15.4659C136.592 16.4356 136.971 17.5455 137.168 18.7955ZM141.369 34.5V11.2273H155.96V14.25H144.881V21.3409H155.199V24.3523H144.881V31.4773H156.097V34.5H141.369Z" fill="black"/>
</svg>
